<?xml version="1.0" encoding="utf-8"?>
<!-- Generator: Adobe Illustrator 27.5.0, SVG Export Plug-In . SVG Version: 6.00 Build 0)  -->
<svg version="1.1" id="Livello_1" xmlns="http://www.w3.org/2000/svg" xmlns:xlink="http://www.w3.org/1999/xlink" x="0px" y="0px"
	 viewBox="0 0 166.7 68" style="enable-background:new 0 0 166.7 68;" xml:space="preserve">
<style type="text/css">
	.st0{fill:#E30613;}
	.st1{fill-rule:evenodd;clip-rule:evenodd;fill:#00627D;}
	.st2{fill-rule:evenodd;clip-rule:evenodd;fill:#FECC27;}
</style>
<g>
	<g>
		<path class="st0" d="M18.1,37.7l7.7-7.7v-9.4L13.4,33l-3.1-3.1l15.6-15.6V5.1L1,29.9l24.8,24.8v-9.3L18.1,37.7L18.1,37.7z
			 M51.4,26.4h1.3l-0.4-8.5H32.6v1.5h1.8c1.3,0,1.8,0.4,1.8,1.7v17.5c0,1.3-0.6,1.7-1.8,1.7h-1.8v1.5H44v-1.5h-1.7
			c-2,0-2.5-0.5-2.5-1.5V30h1.8c2.6,0,3.8,1.9,3.8,4.8H47V24h-1.5c-0.2,3.3-1.5,4.5-4.4,4.5h-1.2v-7.9c0-1.2,0.4-1.3,2.4-1.3
			C48.6,19.4,50.2,19.6,51.4,26.4 M62.1,31.7c0,1-0.3,1.2-1.7,1.2h-5.8c0.3-3.6,1.5-5.8,4.1-5.8C60.7,27.2,62.1,28.9,62.1,31.7
			 M65.4,34.3c-0.2-4.9-2.7-8.4-6.5-8.4c-4.7,0-7.7,3.1-7.7,8.7c0,4.5,3,7.6,7.5,7.6c3.3,0,5.3-1.6,6.7-4.6L64.3,37
			c-1,2.2-2.5,3.6-5,3.6c-2.5,0-4.7-2-4.7-5.8v-0.4H65.4L65.4,34.3z M74.2,40.4h-0.9c-1.3,0-1.8-0.4-1.8-1.5V17.4l-6.1,0.3V19h1.5
			c1.1,0,1.6,0.1,1.6,0.9v18.9c0,1.1-0.4,1.5-1.8,1.5h-0.9v1.3h8.5L74.2,40.4L74.2,40.4z M79.6,27.9h4.9v-1.5h-4.9v-6.7h-1.3
			c-0.2,2.8-0.9,6.4-4.4,6.6v1.5h2.7v10.7c0,2,1.8,3.6,3.9,3.6c3.5,0,5-2.3,5-6.4h-1.3c0,1.7-0.4,4.5-2.6,4.5c-1.5,0-2-0.9-2-2.6
			L79.6,27.9L79.6,27.9z M104.3,19.9c0-1.1-0.9-2-2-2c-1.1,0-2,0.9-2,2s0.9,2,2,2C103.4,21.8,104.3,21,104.3,19.9z M116.7,41.7h8.5
			v-1.3h-0.9c-1.3,0-1.8-0.4-1.8-1.5v-7.1c0-3.3-2-5.9-5.3-5.9c-1.5,0-3.4,0.6-5,3.3h-0.1v-2.8l-5.8,0.3V28h1.1
			c1.1,0,1.6,0.1,1.6,0.9v9.9c0,1.1-0.4,1.5-1.8,1.5h-1.7c-1.3,0-1.8-0.4-1.8-1.5V26.4L98,26.7c-0.5-0.5-1.2-0.8-1.9-0.8
			c-2.9,0-4.5,2.7-4.9,4.5h-0.1v-3.9L85,26.7V28h1.5c1.1,0,1.6,0.1,1.6,0.9v9.8c0,1.3-0.5,1.6-1.8,1.6h-1.1v1.3h9v-1.3h-1.2
			c-1.4,0-1.9-0.2-1.9-1v-3.3c0-2.7,1.1-8.4,4.5-8.6h0.1v0.1C95.2,28,95,28.4,95,29c0,0.9,0.7,1.8,1.8,1.8c1.3,0,2-1,2-2.3
			c0-0.1,0-0.3-0.1-0.4h0.7c1.1,0,1.6,0.1,1.6,0.9v9.8c0,1.3-0.5,1.6-1.8,1.6h-1.1v1.3h16.9v-1.3h-0.9c-1.3,0-1.8-0.4-1.8-1.5v-5.6
			c0-3.4,1.9-5.3,4.1-5.3c1.9,0,3.1,1.2,3.1,3.4v7.6c0,1.1-0.4,1.5-1.8,1.5h-0.9L116.7,41.7L116.7,41.7z M136.1,31.7
			c0,1-0.3,1.2-1.7,1.2h-5.8c0.3-3.6,1.5-5.8,4.1-5.8C134.8,27.2,136.1,28.9,136.1,31.7 M139.5,34.3c-0.2-4.9-2.7-8.4-6.5-8.4
			c-4.7,0-7.7,3.1-7.7,8.7c0,4.5,3,7.6,7.5,7.6c3.3,0,5.3-1.6,6.7-4.6l-1.1-0.7c-1,2.2-2.5,3.6-5,3.6c-2.5,0-4.7-2-4.7-5.8v-0.4
			H139.5L139.5,34.3z M163.1,19.9c0-1.1-0.9-2-2-2c-1.1,0-2,0.9-2,2s0.9,2,2,2C162.2,21.8,163.1,21,163.1,19.9z M165.4,41.7v-1.3
			h-0.9c-1.3,0-1.8-0.4-1.8-1.5V26.4l-6.1,0.3V28h1.5c1.1,0,1.6,0.1,1.6,0.9v9.8c0,1.3-0.5,1.6-1.8,1.6h-2c-1.3,0-1.8-0.4-1.8-1.5
			V17.4l-6.1,0.3V19h1.5c1.1,0,1.6,0.1,1.6,0.9v18.9c0,1.1-0.4,1.5-1.8,1.5h-2c-1.3,0-1.8-0.4-1.8-1.5V17.4l-6.1,0.3V19h1.5
			c1.1,0,1.6,0.1,1.6,0.9v18.9c0,1.1-0.4,1.5-1.8,1.5h-1.1v1.3L165.4,41.7L165.4,41.7z"/>
		<path class="st1" d="M129.6,46.8h3.1v2.3h-3.1V46.8z M136.8,53.7c0.4-0.3,0.9-0.6,1.5-0.8c0.6-0.2,1.1-0.4,1.7-0.4
			c0.9,0,1.5,0.3,2,0.9c0.4,0.7,0.7,1.8,0.7,3.1c0,1.5-0.3,2.6-0.9,3.2s-1.3,0.9-2.3,0.9c-0.5,0-0.9-0.1-1.3-0.1
			c-0.3-0.1-0.7-0.2-1.2-0.4L136.8,53.7L136.8,53.7z M136.5,62.9h5.6c0.7-0.3,1.3-0.7,1.8-1.3c0.5-0.6,0.9-1.3,1.3-2.2
			c0.3-0.9,0.4-1.8,0.4-2.8c0-2-0.4-3.7-1.4-4.8c-0.9-1.2-2.3-1.8-3.9-1.8c-0.9,0-1.6,0.1-2.3,0.5c-0.4,0.2-0.9,0.5-1.3,0.9v-4.5
			h-3.1v16.1H136.5z M154.6,62.9H147l0,0c-0.3-0.1-0.5-0.2-0.7-0.3l-0.3-0.1v-3.1c0,0,1.5,0.9,2.3,1.2c0.1,0,0.1,0.1,0.2,0.1
			c0.7,0.3,1.6,0.6,2.7,0.6c0.9,0,1.5-0.3,2-0.6c0.4-0.2,0.6-0.6,0.6-1c0-0.4-0.1-0.6-0.3-0.8c-0.1-0.1-0.5-0.4-1.5-0.5
			c-0.3-0.1-0.7-0.1-1.2-0.2c-0.5-0.1-0.9-0.2-1.4-0.3c-1.2-0.3-2.1-0.8-2.6-1.5c-0.5-0.7-0.8-1.5-0.8-2.4c0-0.6,0.1-1.2,0.4-1.7
			s0.6-0.9,1.1-1.4c0.4-0.4,1.1-0.7,1.8-0.9c0.7-0.2,1.5-0.4,2.3-0.4c0.8,0,1.6,0.1,2.4,0.3c0.8,0.2,1.5,0.4,2,0.7l0.3,0.1v3
			c0,0-1.5-0.7-2.2-0.9c-0.7-0.2-1.6-0.6-2.7-0.6c-0.7,0-1.3,0.2-1.8,0.5c-0.4,0.2-0.6,0.5-0.6,0.9s0.1,0.7,0.3,0.8l0,0
			c0.1,0.1,0.6,0.4,1.3,0.5c0.4,0.1,0.8,0.1,1.3,0.3c0.5,0.1,0.9,0.1,1.2,0.2c1.1,0.2,1.9,0.7,2.6,1.3s0.9,1.5,0.9,2.6
			c0,1.3-0.5,2.3-1.6,3.2C155,62.6,154.8,62.8,154.6,62.9z M129.6,50.2h3.1v12.7h-3.1V50.2z"/>
		<path class="st2" d="M160.7,46.8h-1.2v1.2h1.2V46.8z M160.7,48.6h-1.2v6.7h1.2V48.6z M162.4,55c0.4,0.4,0.9,0.6,1.6,0.6l0,0
			c0.1,0,0.4,0,0.6-0.1c0.2,0,0.8-0.2,0.8-0.2v-1.1c0,0-0.6,0.3-1.2,0.3h-0.1c-0.2,0-0.4,0-0.7-0.1c-0.1-0.1-0.2-0.1-0.3-0.3
			c-0.1-0.1-0.1-0.3-0.1-0.5c0-0.2,0-0.4,0-0.8v-3.1h2.3v-1.1h-2.3v-1.8h-1.2v1.8h-0.7v1.2h0.7v3.6C161.9,54.1,162,54.6,162.4,55z
			 M165.4,56.5h-7.7v0.9h7.7V56.5z M157.7,54.1h1.2v1.2h-1.2V54.1z"/>
	</g>
</g>
</svg>
